<svg width="13" height="12" fill="none" xmlns="http://www.w3.org/2000/svg"><path d="M6.47 12a.78.78 0 0 1-.58-.25C1.96 7.42 1.04 6.44.86 6.17A3.77 3.77 0 0 1 0 3.8c0-.73.22-1.44.63-2.05.4-.6.99-1.1 1.67-1.4A4.09 4.09 0 0 1 6.51.9a4.08 4.08 0 0 1 5.34.22A3.73 3.73 0 0 1 13 3.8a3.4 3.4 0 0 1-.92 2.38l-5.04 5.56a.76.76 0 0 1-.57.25V12Zm-4.4-6.72c.22.26 2.56 2.84 4.4 4.86l4.48-4.94c.36-.38.55-.88.54-1.4 0-.62-.26-1.21-.71-1.65a2.46 2.46 0 0 0-2.8-.43c-.35.16-.65.4-.88.69a.82.82 0 0 1-.61.28.76.76 0 0 1-.6-.3 2.43 2.43 0 0 0-1.95-.92c-.45 0-.9.13-1.28.37s-.69.57-.88.97a2.27 2.27 0 0 0 .3 2.46v.01Z" fill="#D22856"/></svg>