<svg width="74" height="23" fill="none" xmlns="http://www.w3.org/2000/svg"><path d="M0 1.55A1.29 1.29 0 0 1 1.26.26h7.13c5.06 0 8.39 2.7 8.39 7.13v.06c0 4.85-4.04 7.36-8.8 7.36H2.53v6.8A1.28 1.28 0 0 1 1.27 23 1.27 1.27 0 0 1 0 21.61V1.55Zm8.07 10.97c3.7 0 6.14-2 6.14-4.99v-.06c0-3.2-2.4-4.87-5.96-4.87H2.6v9.88l5.48.04ZM21.6 1.39A1.28 1.28 0 0 1 22.85 0a1.27 1.27 0 0 1 1.27 1.39V21.6A1.28 1.28 0 0 1 22.86 23a1.27 1.27 0 0 1-1.27-1.39V1.4ZM30.67 1.42A1.28 1.28 0 0 1 31.93.17h.34a1.54 1.54 0 0 1 1.29.74l13.6 17.4V1.36A1.24 1.24 0 0 1 48.39.12a1.23 1.23 0 0 1 1.23 1.24v20.3a1.14 1.14 0 0 1-1.15 1.17h-.13a1.7 1.7 0 0 1-1.31-.78L33.12 4.25v17.4a1.26 1.26 0 0 1-1.2 1.25 1.23 1.23 0 0 1-1.2-1.25V1.42h-.05ZM55.94 1.39A1.28 1.28 0 0 1 57.2 0a1.27 1.27 0 0 1 1.26 1.39v12.3L71.23.54c.26-.27.62-.43 1-.45a1.27 1.27 0 0 1 1.21 1.26 1.29 1.29 0 0 1-.41.9l-7.95 7.9 8.57 10.52c.23.26.35.6.35.94a1.31 1.31 0 0 1-1.34 1.28 1.23 1.23 0 0 1-1-.58L63.3 11.86l-4.83 4.85v4.88a1.27 1.27 0 0 1-1.26 1.27 1.26 1.26 0 0 1-1.26-1.27V1.4h-.01Z" fill="#fff"/></svg>