<svg width="18" height="11" fill="none" xmlns="http://www.w3.org/2000/svg"><path fill-rule="evenodd" clip-rule="evenodd" d="M17.59.71c.12-.4 0-.71-.6-.71h-1.97c-.5 0-.73.26-.85.55 0 0-1 2.4-2.42 3.95-.46.45-.67.6-.92.6-.13 0-.32-.15-.32-.56V.71c0-.5-.13-.71-.55-.71h-3.1c-.3 0-.5.23-.5.44 0 .47.71.58.78 1.89v2.85c0 .62-.11.74-.36.74-.67 0-2.3-2.41-3.26-5.17C3.34.22 3.15 0 2.65 0H.68C.1 0 0 .26 0 .55c0 .5.67 3.05 3.1 6.41 1.64 2.3 3.93 3.54 6.01 3.54 1.26 0 1.41-.28 1.41-.75V8c0-.55.12-.66.52-.66.29 0 .79.14 1.96 1.25 1.33 1.31 1.55 1.9 2.3 1.9h1.97c.57 0 .85-.28.68-.82A8.36 8.36 0 0 0 16.3 7.4c-.46-.53-1.14-1.1-1.35-1.4-.3-.36-.21-.52 0-.85 0 0 2.4-3.32 2.65-4.45Z" fill="#D22856"/></svg>