<svg width="298" height="345" fill="none" xmlns="http://www.w3.org/2000/svg"><path d="M145.13 239H85.25v-12.6l21.5-21.74c6.37-6.52 10.53-11.03 12.48-13.53a30.31 30.31 0 0 0 4.22-7.03 17.84 17.84 0 0 0 1.3-6.68c0-3.44-.97-6-2.88-7.68-1.87-1.68-4.4-2.52-7.56-2.52-3.32 0-6.54.76-9.67 2.29a49.85 49.85 0 0 0-9.78 6.5l-9.84-11.66c4.21-3.6 7.71-6.13 10.48-7.62a37.62 37.62 0 0 1 9.09-3.4 45.49 45.49 0 0 1 11.01-1.23c5.35 0 10.08.98 14.18 2.94a22.63 22.63 0 0 1 9.55 8.2 21.79 21.79 0 0 1 3.4 12.07c0 3.94-.7 7.66-2.1 11.13a41.7 41.7 0 0 1-6.45 10.6c-2.9 3.64-8.01 8.81-15.36 15.53l-11.01 10.38v.82h37.32V239Zm70.5-17.75H205.3V239h-17.7v-17.75h-36.56v-12.6l37.56-55.31h16.7v53.84h10.31v14.07Zm-28.02-14.07v-14.53c0-2.42.1-5.94.3-10.55.2-4.6.35-7.28.47-8.02h-.47a65.26 65.26 0 0 1-5.22 9.37L167 207.18h20.62Z" fill="#D22856"/><path d="m264.59 102.03 5.35-5.35c7.72-7.72 9.13-18.94 3.13-24.93-6-5.99-17.22-4.6-24.93 3.12l-5.4 5.39a148.2 148.2 0 0 0-74.72-31.97V38.7h7.66c10.9 0 19.84-8.7 19.84-19.34S186.59 0 175.68 0h-53.32c-10.91 0-19.84 8.7-19.84 19.36 0 10.64 8.93 19.34 19.84 19.34h7.66v9.59a149.01 149.01 0 0 0-128.84 129 148.93 148.93 0 0 0 92.54 157.08 149.04 149.04 0 0 0 175.33-50.1 148.94 148.94 0 0 0-4.46-182.23ZM149.02 306.19a110.19 110.19 0 0 1-101.79-68 110.12 110.12 0 0 1 80.3-150.17 110.2 110.2 0 0 1 113.1 46.85 110.12 110.12 0 0 1-13.72 139.07 110.18 110.18 0 0 1-77.9 32.25Z" fill="#DEDEDE"/><circle cx="149" cy="195" r="117" stroke="#D22856" stroke-width="18"/></svg>
